# xmcd
#
# Track frame offsets:
#	150
#	14421
#	32394
#	44733
#	58252
#	69491
#	87869
#	103759
#	114853
#	128030
#
# Disc length: 1856 seconds
#
# Revision: 1
# Processed by: cddbd v1.5.2PL0 Copyright (c) Steve Scherf et al.
# Submitted via: audiograbber 1.83.01
#
DISCID=81073e0a
DTITLE=R.B. Greaves - R. B. Greaves
DYEAR=1969
DGENRE=Oldies
TTITLE0=Always Something There To Remind Me
TTITLE1=Don't Play That Song (You Lied)
TTITLE2=Take A Letter Maria
TTITLE3=Cupid
TTITLE4=This Is Soul
TTITLE5=Ballad Of Leroy
TTITLE6=Ain't That Good News
TTITLE7=Birmingham, Alabama
TTITLE8=Home To Stay
TTITLE9=Oh When I Was A Boy
EXTD=
EXTT0=
EXTT1=
EXTT2=
EXTT3=
EXTT4=
EXTT5=
EXTT6=
EXTT7=
EXTT8=
EXTT9=
PLAYORDER=
